<svg xmlns="http://www.w3.org/2000/svg" width="25" height="25" viewBox="0 0 25 25"><g transform="translate(0 -1027.362)"><circle cx="12.5" cy="1039.862" r="12.5" fill="#ef4c45" fill-rule="evenodd"/><path fill="#fff" fill-rule="evenodd" style="line-height:normal;text-indent:0;text-align:start;text-decoration-line:none;text-decoration-style:solid;text-decoration-color:#000;text-transform:none;block-progression:tb;isolation:auto;mix-blend-mode:normal" d="m 7.9999997,1032.3622 0,8 1.0214844,0 0,-6.9766 6.4394539,0 0,3.9903 3.517578,-0.014 0,9.9785 -9.9570319,0 0,-3.9785 -1.0214844,0 0,5 12.0000003,0 0,-12.2109 -3.964844,-3.7891 -8.0351563,0 z m 8.4609383,1.8223 2.283203,2.1797 -2.283203,0.01 0,-2.1894 z m -4.607423,4.6797 -0.707031,0.707 1.791016,1.791 -8.9375003,0 0,1 9.0000003,0 -1.853516,1.8555 0.707031,0.707 3.000001,-3 -0.0293,-0.031 0.0293,-0.029 -3.000001,-3 z" color="#000" font-family="sans-serif" font-weight="400" overflow="visible"/></g></svg>